<?xml version="1.0" encoding="UTF-8"?><!DOCTYPE svg PUBLIC "-//W3C//DTD SVG 1.1//EN" "http://www.w3.org/Graphics/SVG/1.1/DTD/svg11.dtd"><svg xmlns="http://www.w3.org/2000/svg"><symbol id="box" viewBox="0 0 60 60"><path d="M12 0H0v60h60V0H12zm36 39.045L39.045 48H30.56L48 30.56v8.485zm0 2.828V48h-6.127L48 41.873zM27.731 48h-8.485L48 19.246v8.485L27.731 48zM48 16.418L16.418 48H12v-4.067L43.932 12H48v4.418zM12 41.104v-8.485L32.619 12h8.485L12 41.104zm0-11.313v-8.486L21.305 12h8.486L12 29.791zm0-11.314V12h6.477L12 18.477zM2 2h8v46H2V2zm46 56H2v-8H48v8zm10 0h-8V12h8v46zm-8-48H12V2h46v8h-8z"/><circle cx="55" cy="4" r="1"/><circle cx="51" cy="4" r="1"/><circle cx="55" cy="8" r="1"/><circle cx="51" cy="8" r="1"/><circle cx="56" cy="55" r="1"/><circle cx="56" cy="51" r="1"/><circle cx="52" cy="55" r="1"/><circle cx="52" cy="51" r="1"/><circle cx="5" cy="56" r="1"/><circle cx="9" cy="56" r="1"/><circle cx="5" cy="52" r="1"/><circle cx="9" cy="52" r="1"/><circle cx="4" cy="5" r="1"/><circle cx="4" cy="9" r="1"/><circle cx="8" cy="5" r="1"/><circle cx="8" cy="9" r="1"/></symbol><symbol id="brakes" viewBox="0 0 424.96 424.96"><path d="M294.912 350.72l-2.56 2.56c-1.024 1.024-1.024 2.56 0 3.584.512.512 1.536.512 2.048.512h1.536c.512-1.024 1.536-2.048 2.56-3.072s1.024-2.56 0-3.584-2.56-1.024-3.584 0zM316.416 327.68c-1.024-1.024-2.56-.512-3.584.512-3.072 4.608-6.144 8.704-9.216 12.8-.512 1.024-.512 2.56.512 3.584.512.512 1.024.512 1.536.512s1.536-.512 2.048-1.024c3.072-4.096 6.144-8.192 9.216-12.8 1.024-1.024.512-3.072-.512-3.584zM313.344 297.472h1.024c1.024 0 2.048-.512 2.048-1.024 4.096-10.24 6.656-20.992 8.192-31.744.512-1.536-.512-3.072-2.048-3.072-1.536-.512-3.072.512-3.072 2.048-1.536 10.752-4.096 20.992-7.68 30.72-.512 1.024 0 2.56 1.536 3.072zM183.808 145.408c-53.76 0-97.28 44.032-97.28 98.304s43.52 98.304 97.28 98.304 97.28-44.032 97.28-98.304-43.52-98.304-97.28-98.304zm0 185.856c-48.128 0-87.04-39.424-87.04-88.064s38.912-88.064 87.04-88.064 87.04 39.424 87.04 88.064-38.912 88.064-87.04 88.064z"/><path d="M183.808 221.184c-12.288 0-22.528 10.24-22.528 22.528 0 12.288 10.24 22.528 22.528 22.528s22.528-10.24 22.528-22.528c0-12.288-10.24-22.528-22.528-22.528zm0 35.328c-7.168 0-12.8-6.144-12.8-13.312s5.632-13.312 12.8-13.312 12.8 6.144 12.8 13.312-5.632 13.312-12.8 13.312zM223.232 262.656c-3.584-2.56-8.192-1.536-10.752 2.048-2.56 3.584-2.048 8.192 1.536 10.752 1.536 1.024 3.072 1.536 4.608 1.536 2.56 0 4.608-1.024 6.144-3.072l.512-.512c2.048-3.584 1.536-8.192-2.048-10.752zM171.008 209.408c.512 0 1.536-.512 2.56 0 4.096-1.536 6.144-5.632 5.12-9.728-1.536-4.096-5.632-6.144-9.728-5.12h-.512c-4.096 1.536-6.144 5.632-4.608 9.728 1.024 3.072 4.096 5.12 7.168 5.12zM172.544 277.504h-.512c-4.096-1.024-8.192 1.024-9.728 5.12-1.024 4.096 1.024 8.192 5.12 9.728h.512c1.024.512 1.536.512 2.56.512 3.584 0 6.144-2.048 6.656-5.632 1.536-4.096-.512-8.192-4.608-9.728zM225.28 212.992c-2.56-3.584-7.168-4.096-10.752-1.536-3.072 2.56-4.096 7.168-1.536 10.752 1.024 2.56 3.584 3.584 6.144 3.584 1.536 0 3.072-.512 4.608-1.536 3.584-2.56 4.608-7.168 2.048-10.752l-.512-.512zM140.8 235.008c-4.096 0-7.68 3.584-7.68 7.68v1.024c0 4.096 3.584 7.68 7.68 7.68s7.68-3.584 7.68-8.192v-.512c0-4.096-3.584-7.68-7.68-7.68z"/><path d="M183.808 171.008c-39.424 0-71.168 32.256-71.168 72.704 0 39.936 31.744 72.704 71.168 72.704s71.168-32.256 71.168-72.704c.512-40.448-31.744-72.704-71.168-72.704zm0 140.288c-36.352 0-66.048-30.208-66.048-67.584 0-37.376 29.696-67.584 66.048-67.584s66.048 30.208 66.048 67.584-29.696 67.584-66.048 67.584zM173.568 375.296c-2.56-1.024-5.632-.512-7.168 2.048v.512c-1.024 2.56-.512 5.632 2.048 7.168 1.024.512 1.536.512 2.56.512 2.048 0 3.584-1.024 4.608-2.56v-.512c1.024-2.56.512-5.632-2.048-7.168zM165.888 389.12c-2.56-1.024-5.632-.512-7.168 2.048v.512c-1.024 2.56-.512 5.632 2.048 7.168 1.024.512 1.536.512 2.56.512 1.536 0 3.584-1.024 4.608-2.56v-.512c1.024-2.56.512-5.632-2.048-7.168zM181.76 361.984c-2.56-1.024-5.632-.512-7.168 2.048v.512c-1.536 2.56-.512 5.12 2.048 6.656 1.024.512 1.536.512 2.56.512 1.536 0 3.584-1.024 4.608-2.56 1.024-2.56.512-5.632-2.048-7.168zM61.44 330.752h-.512c-2.56.512-4.096 3.584-3.584 6.144 1.024 2.048 3.072 3.584 5.12 3.584H64c2.56-.512 4.096-3.584 3.584-6.144S64 330.24 61.44 330.752zM77.312 326.656H76.8c-3.072.512-4.096 3.584-3.584 6.144.512 2.048 3.072 3.584 5.12 3.584h1.536c2.56-.512 4.096-3.584 3.584-6.144s-3.584-4.608-6.144-3.584zM92.16 322.56h-.512c-2.56.512-4.096 3.584-3.584 6.144 1.024 2.048 3.072 3.584 5.12 3.584h1.536c2.56-.512 4.096-3.584 3.584-6.144s-3.584-4.096-6.144-3.584zM60.928 243.712c1.536 0 3.584-1.024 4.608-2.56 1.024-2.56.512-5.632-2.048-7.168h-.512c-2.56-1.536-5.12-.512-6.656 2.048-1.536 2.56-.512 5.632 2.048 7.168 1.024.512 1.536.512 2.56.512zM35.84 218.112h-.512c-2.56-1.024-5.632-.512-7.168 2.048-1.024 2.56-.512 5.632 2.048 7.168h.512c1.024.512 1.536.512 2.56.512 1.536 0 3.584-.512 4.608-2.56 1.024-2.56.512-5.632-2.048-7.168zM49.664 226.304h-.512c-2.56-1.536-5.12-.512-6.656 2.048s-.512 5.632 2.048 7.168c1.024.512 1.536.512 2.56.512 1.536 0 3.584-1.024 4.608-2.56 1.024-2.56.512-5.632-2.048-7.168zM270.848 345.6c2.56-.512 4.096-3.584 3.584-6.144v-.512c-.512-2.56-3.584-4.096-6.144-3.584s-4.096 3.584-3.584 6.144v.512c1.024 2.048 3.072 3.584 5.12 3.584h1.024zM278.528 354.304c-.512-2.56-3.584-4.096-6.144-3.584s-4.096 3.584-3.584 6.144v.512c1.024 2.048 3.072 3.584 5.12 3.584h1.024c2.56-.512 4.096-3.584 3.584-6.144v-.512zM266.24 330.24c2.56-.512 4.096-3.584 3.584-6.144v-.512c-.512-2.56-3.584-4.096-6.144-3.584s-4.096 3.584-3.584 6.144v.512c1.024 2.048 3.072 3.584 5.12 3.584h1.024zM94.208 132.608c-2.56.512-4.096 3.584-3.584 6.144v.512c1.024 2.048 3.072 3.584 5.12 3.584h1.024c2.56-.512 4.096-3.584 3.584-6.144v-.512c-.512-2.56-3.584-4.096-6.144-3.584zM86.528 123.904c1.024 2.048 3.072 3.584 5.12 3.584h1.024c2.56-.512 4.096-3.584 3.584-6.144v-.512c-.512-2.56-3.584-4.096-6.144-3.584s-4.096 3.584-3.584 6.144v.512zM98.304 147.968c-2.56.512-4.096 3.584-3.584 6.144v.512c1.024 2.048 3.072 3.584 5.12 3.584h1.024c2.56-.512 4.096-3.584 3.584-6.144v-.512c-.512-2.56-3.584-4.096-6.144-3.584zM356.352 218.624c-.512-1.024-1.536-2.048-3.072-1.536-1.024.512-2.048 1.536-1.536 3.072s.512 2.56 1.024 3.584c.512 1.536 1.536 2.048 2.56 2.048.512 0 .512 0 0-.512 1.536-.512 2.56-1.536 2.048-3.072-.512-1.024-.512-2.56-1.024-3.584zM352.256 214.016c1.024-.512 2.048-1.536 1.536-3.072-1.024-3.072-2.048-5.632-3.072-8.704-.512-1.536-1.536-2.048-3.072-1.536s-2.048 1.536-1.536 3.072c1.024 2.56 2.048 5.12 3.072 8.192.512 1.024 1.536 1.536 2.56 1.536.512 0 .512 0 .512.512zM207.872 65.536c-3.072-1.024-6.656-2.048-10.24-3.072-1.536 0-3.072.512-3.072 2.048s.512 2.56 2.048 3.072c3.584 1.024 7.168 2.048 10.24 3.072h.512c1.024 0 2.048-.512 2.048-2.048.512-1.024 0-2.56-1.536-3.072z"/><path d="M415.232 243.2H403l-1.08-14.848c-.705-13.387-5.046-26.289-12.188-37.539l-2.147-14.173c-2.048-14.336-8.192-27.648-17.408-38.912l-20.992-25.088a4.104 4.104 0 0 0-.278-.327l2.326-4.281c3.072-6.144 2.048-13.824-2.56-18.432l-17.92-17.92c-5.12-4.608-12.288-5.632-18.432-2.56l-3.852 2.092-24.82-20.524c-11.264-9.216-24.576-15.36-38.912-17.92l-16.896-2.56a5.6 5.6 0 0 0-.474-.055c-10.599-6.064-22.518-9.723-34.854-10.697l-13.824-1.005V5.12c0-3.072-2.048-5.12-5.12-5.12s-5.12 2.048-5.12 5.12v12.586l-32.256-2.346h-1.024c-3.584 0-6.656 2.048-8.704 5.12-1.536 3.072-1.536 7.168 0 10.24l19.266 34.878C63.503 83.555 4.608 157.484 4.608 243.2c0 100.352 80.384 181.76 179.2 181.76 87.196 0 160.158-61.806 175.7-147.483l30.636 16.923c1.536 1.024 3.584 1.536 5.12 1.536 3.072 0 5.632-1.536 8.192-3.584 2.048-2.048 2.56-4.608 2.56-7.68l-2.271-31.232h12c2.56 0 4.608-2.048 4.608-5.12-.001-3.072-2.049-5.12-5.121-5.12zm-23.552-13.312l.968 13.312h-11.734l9.652-21.008a76.186 76.186 0 0 1 1.114 7.696zm-29.184-85.504c7.631 9.062 12.594 19.902 14.893 31.277l-6.189-6.189c-2.048-2.56-5.632-3.584-8.704-3.072l-18.944 3.072-1.024-1.536a216.55 216.55 0 0 0-12.52-20.832l13.685-25.192 18.803 22.472zm-45.568-66.56c2.048-1.024 4.608-.512 6.144 1.024l17.92 17.92c1.536 1.536 2.048 4.096 1.024 6.144l-18.849 34.7c-11.632-15.238-25.283-28.85-40.658-40.427l34.419-19.361zM276.48 58.368l22.057 18.239-25.499 13.851a207.556 207.556 0 0 0-19.597-11.611l-1.536-.512 2.56-19.456c.512-3.072-1.024-6.656-3.072-8.704l-6.825-6.824c11.606 2.242 22.681 7.244 31.912 15.017zM192 29.696c2.089.19 4.163.467 6.216.829l-19.528 8.592v-10.38l13.312.959zm-23.444 13.439c-2.861.304-5.686-.929-7.276-3.711l-7.022-12.448 14.19 1.023v13.985c0 .403.039.786.108 1.151zm15.252 371.585c-92.672 0-168.448-76.8-168.96-171.52 0-82.223 57.361-152.36 136.165-168.038l5.147 9.318c1.536 2.56 3.072 4.608 5.12 6.656l19.456 19.456c7.168 7.68 15.872 13.312 25.6 17.408l15.36 6.656c29.184 12.288 52.224 35.328 64.512 64.512l6.656 15.36c4.096 9.728 10.24 18.432 17.408 25.6l19.456 19.456c1.946 1.946 3.905 3.428 6.29 4.888a2.133 2.133 0 0 0-.146.744c-2.048 16.384-6.656 32.768-14.336 47.616-.512 1.536 0 3.072 1.024 3.584 0 .512.512.512 1.024.512s1.536-.512 2.56-1.536c7.541-15.082 12.606-31.153 14.726-48.21l9.493 5.244c-14.142 82.379-83.799 142.294-166.555 142.294zm158.208-158.208c-1.536-1.024-3.072-2.048-4.608-3.584l-19.456-19.456a73.439 73.439 0 0 1-15.36-22.528l-6.656-15.36c-13.824-31.744-38.4-56.832-70.144-70.144l-15.36-6.656c-8.704-3.584-15.872-8.704-22.528-15.36l-19.456-19.456c-1.536-1.536-2.56-3.072-3.584-4.608L135.168 25.6l12.781.921 8.723 15.463c2.56 4.096 6.656 6.656 11.264 6.656 2.048 0 3.584 0 5.632-1.024l33.194-15.048a72.205 72.205 0 0 1 30.294 18.12l7.168 7.168-2.81 21.077c-5.086-2.461-10.239-4.722-15.622-6.741-1.024-.512-2.56 0-3.072 1.536-.512 1.024 0 2.56 1.536 3.072 6.059 2.272 11.835 4.547 17.334 7.233.458.811 1.174 1.509 2.122 1.983l4.608 2.56c36.352 19.456 65.536 48.64 84.992 84.992l.828 1.655c.001.325.061.633.196.905 3.072 5.632 5.632 11.264 8.192 17.408.512 1.024 1.536 1.536 2.56 1.536h.512c1.536-1.024 2.048-2.048 1.536-3.584-1.473-3.536-2.959-7.059-4.529-10.497l20.913-3.327 7.168 7.168c8.381 8.032 14.375 18.209 17.83 29.229l-14.265 31.047a4.858 4.858 0 0 0-.824 1.794l-.181.394c-3.072 6.144-.512 13.312 5.12 16.384l16.427 9.035.981 13.493-53.76-29.696zm52.376 10.667l-13.464-7.595c-2.454-1.402-3.706-3.765-3.76-6.265a6.17 6.17 0 0 0 1.2.121h15.025l.999 13.739z"/></symbol><symbol id="car-24" viewBox="0 0 470.641 470.641"><path d="M425.666 248.77l24.036-2.903c11.937-1.442 20.938-11.596 20.938-23.619 0-13.118-10.673-23.791-23.791-23.791h-16.743c-10.232 0-18.975 6.493-22.327 15.575L386.17 166.72a8.79 8.79 0 0 0-.171-.352l-1.638-3.594c-8.688-19.038-26.052-33.194-46.45-37.867a81.192 81.192 0 0 0-3.078-.635c-.868-23.377-9.874-45.642-25.611-63.049-3.332-3.687-9.023-3.974-12.711-.641s-3.975 9.025-.641 12.712c13.572 15.014 21.048 34.44 21.048 54.7 0 44.994-36.604 81.599-81.599 81.599s-81.6-36.605-81.6-81.599c0-35.623 22.955-65.968 54.843-77.071l-3.499 2.745a8.999 8.999 0 0 0-1.526 12.636 8.985 8.985 0 0 0 7.087 3.446 8.967 8.967 0 0 0 5.549-1.919l29.38-23.048a9 9 0 0 0-1.75-15.237l-33.841-15.788a9 9 0 1 0-7.609 16.312l4.994 2.33c-40.206 11.784-69.942 48.296-71.552 91.875a82.23 82.23 0 0 0-3.075.634c-20.396 4.675-37.76 18.831-46.448 37.871l-23.416 51.245c-3.355-9.077-12.096-15.566-22.324-15.566H23.791C10.673 198.457 0 209.129 0 222.248c0 12.024 9.002 22.178 20.938 23.619l24.035 2.903-22.989 22.989C10.81 282.934 5.463 298.946 7.682 314.592l7.863 55.438c2.021 14.249 9.408 26.675 19.912 35.36v25.18c0 14.976 12.184 27.16 27.16 27.16h45.04c14.977 0 27.16-12.184 27.16-27.16v-12.229h201.009v12.229c0 14.976 12.184 27.16 27.16 27.16h45.028c14.977 0 27.16-12.184 27.16-27.16v-25.176c10.506-8.685 17.895-21.113 19.916-35.364l7.863-55.439c2.219-15.647-3.128-31.66-14.302-42.834l-22.985-22.987zm-26.219 151.571H71.193c-18.192 0-33.927-13.07-37.458-30.733h403.169c-3.53 17.663-19.265 30.733-37.457 30.733zm-58.096-78.016l9.149 29.284h-12.466l-9.149-29.284h12.466zm-31.324 0l9.149 29.284H151.46l9.149-29.284h149.418zm-177.426 29.283H120.14l9.148-29.284h12.462l-9.149 29.284zm-31.319 0H31.115l-4.154-29.284h83.469l-9.148 29.284zm268.077 0l-9.149-29.284h83.469l-4.154 29.284h-70.166zm54.956-129.361a5.798 5.798 0 0 1 5.791-5.791h16.743a5.798 5.798 0 0 1 5.791 5.791 5.795 5.795 0 0 1-5.097 5.749l-23.229 2.805v-8.554zm-69.597-69.374c-5.558-.963-13.028-1.817-22.324-2.552a99.217 99.217 0 0 0 1.473-7.875l.027.006c7.727 1.77 14.852 5.406 20.824 10.421zm-217.977-10.421l.032-.007a98.715 98.715 0 0 0 1.472 7.873c-9.32.741-16.79 1.597-22.325 2.557 5.971-5.015 13.095-8.652 20.821-10.423zm-37.155 34.513c5.564-2.82 11.584-4.866 17.941-6.089 5.711-1.101 14.824-2.108 26.562-2.945 15.422 35.091 50.509 59.661 91.231 59.661 40.721 0 75.806-24.568 91.228-59.656 11.711.828 20.828 1.834 26.574 2.941 6.351 1.222 12.371 3.27 17.941 6.094l27.814 60.878H71.77l27.816-60.884zM18 222.247a5.798 5.798 0 0 1 5.791-5.791h16.743a5.798 5.798 0 0 1 5.791 5.791v8.555l-23.229-2.805a5.796 5.796 0 0 1-5.096-5.75zm45.351 33.602h343.938l28.637 28.638c5.35 5.349 8.62 12.422 9.36 19.838H25.354c.741-7.416 4.011-14.489 9.36-19.838l28.637-28.638zm53.468 174.722c0 5.051-4.109 9.16-9.16 9.16h-45.04c-5.051 0-9.16-4.109-9.16-9.16v-15.138a55.53 55.53 0 0 0 17.734 2.909h45.626v12.229zm300.358 0c0 5.051-4.109 9.16-9.16 9.16h-45.028c-5.051 0-9.16-4.109-9.16-9.16v-12.229h45.619c6.16 0 12.127-1.022 17.729-2.907v15.136z"/><path d="M210.345 142.372c13.233 0 24-10.766 24-24v-4.667c0-13.234-10.767-24-24-24s-24 10.766-24 24a9 9 0 0 0 18 0c0-3.308 2.691-6 6-6s6 2.692 6 6v4.667c0 3.308-2.691 6-6 6-13.233 0-24 10.766-24 24v10.333a9 9 0 0 0 9 9h30a9 9 0 0 0 0-18h-21v-1.333c0-3.308 2.691-6 6-6zM241.038 97.54l-4.667 35.751a9.001 9.001 0 0 0 8.924 10.165h21v15.249a9 9 0 0 0 18 0v-60a9 9 0 0 0-18 0v26.751h-10.749l3.34-25.586a8.999 8.999 0 0 0-7.759-10.089c-4.927-.642-9.446 2.83-10.089 7.759z"/></symbol><symbol id="car-check" viewBox="0 0 470.64 470.64"><path d="M425.665 241.028l24.036-2.903c11.937-1.441 20.938-11.595 20.938-23.619 0-13.118-10.672-23.791-23.791-23.791h-16.744c-10.232 0-18.975 6.493-22.327 15.575l-23.418-51.259c-8.688-19.039-26.052-33.194-46.452-37.867a81.749 81.749 0 0 0-3.066-.633c-1.964-53.201-45.85-95.879-99.523-95.879-53.673 0-97.559 42.677-99.523 95.879a81.065 81.065 0 0 0-3.075.634c-20.397 4.675-37.76 18.831-46.448 37.87l-23.417 51.247c-3.355-9.077-12.095-15.566-22.324-15.566h-16.74C10.672 190.715 0 201.387 0 214.505c0 12.024 9.001 22.178 20.938 23.619l24.037 2.903-22.989 22.989C10.811 275.191 5.465 291.203 7.684 306.85l7.863 55.439c2.021 14.249 9.408 26.675 19.912 35.361v25.179c0 14.976 12.184 27.16 27.16 27.16h45.039c14.976 0 27.16-12.184 27.16-27.16V410.6h201.009v12.229c0 14.976 12.184 27.16 27.16 27.16h45.028c14.976 0 27.16-12.184 27.16-27.16v-25.176c10.506-8.685 17.895-21.113 19.916-35.364l7.863-55.439c2.219-15.646-3.127-31.659-14.302-42.833l-22.987-22.989zm-26.218 151.571H71.193c-18.192 0-33.927-13.07-37.458-30.733h403.17c-3.531 17.663-19.266 30.733-37.458 30.733zm-58.095-78.016l9.149 29.284h-12.466l-9.149-29.284h12.466zm-31.324 0l9.149 29.284H151.46l9.149-29.284h149.419zm-177.426 29.283H120.14l9.149-29.284h12.462l-9.149 29.284zm-31.32 0H31.114l-4.154-29.284h83.47l-9.148 29.284zm268.076 0l-9.149-29.284h83.47l-4.154 29.284h-70.167zm54.957-129.361a5.798 5.798 0 0 1 5.791-5.791h16.744a5.798 5.798 0 0 1 5.791 5.791 5.795 5.795 0 0 1-5.096 5.749l-23.229 2.806v-8.555zm-69.596-69.373c-5.558-.963-13.028-1.817-22.324-2.552a99.301 99.301 0 0 0 1.473-7.875l.026.006c7.728 1.769 14.853 5.406 20.825 10.421zM235.32 38.651c44.994 0 81.6 36.605 81.6 81.599s-36.605 81.6-81.6 81.6-81.6-36.605-81.6-81.6 36.606-81.599 81.6-81.599zm-98.581 96.059l.034-.007a98.715 98.715 0 0 0 1.472 7.873c-9.321.741-16.792 1.597-22.326 2.557 5.971-5.015 13.095-8.652 20.82-10.423zm-37.153 34.512c5.565-2.82 11.585-4.865 17.942-6.088 5.711-1.102 14.823-2.108 26.561-2.946 15.422 35.092 50.508 59.661 91.231 59.661 40.721 0 75.806-24.568 91.229-59.656 11.71.829 20.827 1.834 26.574 2.941 6.349 1.221 12.369 3.269 17.94 6.093l27.814 60.879H71.77l27.816-60.884zM18 214.505a5.798 5.798 0 0 1 5.791-5.791h16.744a5.798 5.798 0 0 1 5.791 5.791v8.555l-23.229-2.806A5.795 5.795 0 0 1 18 214.505zm45.351 33.602h343.938l28.638 28.637c5.349 5.35 8.619 12.422 9.36 19.838H25.353c.741-7.416 4.011-14.489 9.36-19.838l28.638-28.637zm53.468 174.722c0 5.051-4.109 9.16-9.16 9.16H62.62c-5.051 0-9.16-4.109-9.16-9.16V407.69a55.53 55.53 0 0 0 17.734 2.909h45.625v12.23zm300.358 0c0 5.051-4.109 9.16-9.16 9.16h-45.028c-5.051 0-9.16-4.109-9.16-9.16V410.6h45.619c6.16 0 12.127-1.022 17.73-2.907v15.136z"/><path d="M220.22 173.022a9 9 0 0 0 16.395-1.604l32.999-100.495a9 9 0 0 0-17.101-5.615l-26.623 81.078-16.98-30.186c-2.437-4.332-7.925-5.869-12.256-3.432a9 9 0 0 0-3.432 12.257l26.998 47.997z"/></symbol><symbol id="car-search" viewBox="0 0 470.641 470.641"><path d="M425.667 241.03l24.035-2.903c11.938-1.442 20.938-11.596 20.938-23.619 0-13.119-10.673-23.791-23.791-23.791h-16.743c-10.232 0-18.976 6.494-22.328 15.577l-23.417-51.261c-8.688-19.039-26.052-33.194-46.45-37.867a81.079 81.079 0 0 0-3.06-.631c-.84-23.525-9.876-45.768-25.911-63.364-17.918-19.665-42.422-31.175-68.998-32.409-26.585-1.243-52.041 7.954-71.705 25.872-19.665 17.918-31.175 42.422-32.409 68.998-.014.301-.02.601-.031.902a82.16 82.16 0 0 0-3.074.634c-20.396 4.675-37.76 18.831-46.449 37.871l-23.415 51.245c-3.355-9.077-12.095-15.566-22.324-15.566H23.791C10.673 190.717 0 201.389 0 214.508c0 12.023 9.001 22.177 20.938 23.619l24.031 2.903-22.988 22.989C10.806 275.206 5.462 291.22 7.687 306.852l7.86 55.443c1.976 13.904 9.154 26.575 19.911 35.457v25.08c0 14.976 12.184 27.16 27.16 27.16h45.04c14.977 0 27.16-12.184 27.16-27.16V410.6h201.009v12.232c0 14.976 12.184 27.16 27.16 27.16h45.028c14.977 0 27.16-12.184 27.16-27.16v-25.079c10.759-8.883 17.937-21.553 19.912-35.457l7.871-55.446c2.214-15.649-3.135-31.662-14.308-42.834l-22.983-22.986zm-4.592 144.856c-6.38 4.392-13.858 6.713-21.627 6.713H71.188a37.975 37.975 0 0 1-21.63-6.715 38.35 38.35 0 0 1-15.827-24.015h403.173a38.347 38.347 0 0 1-15.829 24.017zm-79.724-71.301l9.149 29.284h-12.465l-9.148-29.284h12.464zm-31.323 0l9.148 29.284H151.46l9.148-29.284h149.42zm-177.426 29.284h-12.461l9.149-29.284h12.461l-9.149 29.284zm-31.32 0H31.115l-4.151-29.284h83.467l-9.149 29.284zm268.077 0l-9.149-29.284h83.471l-4.156 29.284h-70.166zm54.956-129.361a5.798 5.798 0 0 1 5.791-5.791h16.743a5.798 5.798 0 0 1 5.791 5.791 5.796 5.796 0 0 1-5.097 5.749l-23.229 2.806v-8.555zm-25.438 15.601h-28.958l-50.879-55.836a98.297 98.297 0 0 0 7.574-14.072c11.68.828 20.774 1.832 26.511 2.936 6.35 1.222 12.371 3.27 17.939 6.094l27.813 60.878zm-96.474-36.236a102.228 102.228 0 0 0 5.356-5.254l69.1 75.833c2.785 3.057 2.564 7.81-.492 10.595s-7.811 2.564-10.596-.492l-69.117-75.852a101.105 101.105 0 0 0 5.749-4.83zm52.314-48.74c-5.555-.962-13.021-1.816-22.311-2.551a99.745 99.745 0 0 0 1.469-7.874l.018.004c7.728 1.77 14.853 5.407 20.824 10.421zm-200.908-28.667c1.012-21.772 10.441-41.848 26.552-56.528 15.152-13.807 34.508-21.287 54.87-21.287 1.288 0 2.581.03 3.877.09 21.772 1.011 41.848 10.441 56.528 26.552 30.305 33.258 27.902 84.97-5.355 115.275-16.11 14.68-36.974 22.202-58.747 21.197-21.772-1.012-41.848-10.441-56.528-26.552-14.681-16.111-22.209-36.974-21.197-58.747zm-17.068 18.247l.01-.002a99.297 99.297 0 0 0 1.46 7.87c-9.304.741-16.765 1.596-22.292 2.554 5.972-5.015 13.096-8.652 20.822-10.422zm-37.154 34.511c5.563-2.819 11.584-4.865 17.941-6.088 5.7-1.099 14.793-2.105 26.503-2.941 4.308 9.822 10.234 18.982 17.669 27.141 17.919 19.665 42.423 31.174 68.998 32.409 1.583.074 3.157.11 4.731.11 16.182 0 31.835-3.895 45.899-11.248l19.593 21.502H71.771l27.816-60.885zM18 214.508a5.798 5.798 0 0 1 5.791-5.791h16.743a5.798 5.798 0 0 1 5.791 5.791v8.555l-23.229-2.806A5.796 5.796 0 0 1 18 214.508zm45.346 33.601h253.978l35.144 38.568c5.023 5.514 11.93 8.313 18.859 8.313 6.133 0 12.285-2.193 17.164-6.64 10.394-9.471 11.144-25.631 1.674-36.024l-3.844-4.218h20.971l28.633 28.634c5.35 5.35 8.622 12.424 9.364 19.842H25.354c.739-7.414 4.009-14.488 9.358-19.842l28.634-28.633zm53.473 174.722c0 5.051-4.109 9.16-9.16 9.16h-45.04c-5.051 0-9.16-4.109-9.16-9.16v-15.098a56.131 56.131 0 0 0 17.729 2.866h45.631v12.232zm291.198 9.16h-45.028c-5.051 0-9.16-4.109-9.16-9.16v-12.232h45.62c6.091 0 12.058-.98 17.729-2.865v15.098c-.001 5.05-4.111 9.159-9.161 9.159z"/><path d="M231.913 193.6c1.167.055 2.328.082 3.488.082 18.321-.001 35.74-6.732 49.373-19.155 29.927-27.269 32.089-73.801 4.819-103.728-13.209-14.498-31.274-22.982-50.866-23.893-19.604-.922-38.365 5.864-52.861 19.073-29.927 27.269-32.089 73.801-4.819 103.728 13.209 14.498 31.274 22.983 50.866 23.893zM197.989 79.284c10.292-9.378 23.438-14.459 37.27-14.459.875 0 1.754.021 2.634.062 14.789.687 28.425 7.092 38.396 18.035 20.584 22.59 18.952 57.715-3.638 78.3-10.942 9.972-25.116 15.09-39.903 14.397-14.789-.687-28.425-7.092-38.396-18.035-20.584-22.59-18.953-57.715 3.637-78.3z"/><path d="M255.184 142.051a9 9 0 0 0 12.123 13.304c9.377-8.544 14.864-20.228 15.453-32.899.589-12.672-3.793-24.814-12.337-34.19-3.349-3.673-9.041-3.938-12.714-.59a9 9 0 0 0-.591 12.714c5.306 5.822 8.026 13.362 7.661 21.231s-3.773 15.125-9.595 20.43z"/></symbol><symbol id="car" viewBox="0 0 470.64 470.64"><path d="M425.666 195.738l24.037-2.903c11.936-1.442 20.938-11.596 20.938-23.619 0-13.118-10.672-23.791-23.791-23.791h-16.744c-10.231 0-18.973 6.492-22.326 15.573l-23.417-51.26c-8.689-19.033-26.052-33.188-46.446-37.863-34.518-7.91-170.674-7.911-205.194 0-20.394 4.676-37.756 18.83-46.444 37.861L62.86 160.995c-3.354-9.079-12.095-15.569-22.325-15.569H23.791C10.672 145.425 0 156.098 0 169.216c0 12.023 9.001 22.177 20.938 23.619l24.036 2.903-22.988 22.989C10.811 229.901 5.465 245.914 7.684 261.56l7.863 55.439c2.021 14.249 9.408 26.675 19.912 35.36v25.179c0 14.976 12.184 27.16 27.16 27.16h45.039c14.976 0 27.16-12.184 27.16-27.16V365.31h201.009v12.229c0 14.976 12.184 27.16 27.16 27.16h45.028c14.976 0 27.16-12.184 27.16-27.16v-25.176c10.506-8.685 17.895-21.113 19.916-35.364l7.863-55.439c2.219-15.647-3.127-31.659-14.301-42.834l-22.987-22.988zM399.447 347.31H71.193c-18.192 0-33.927-13.07-37.458-30.733h403.17c-3.531 17.662-19.266 30.733-37.458 30.733zm-58.095-78.017l9.149 29.284h-12.466l-9.149-29.284h12.466zm-31.324 0l9.149 29.284H151.46l9.149-29.284h149.419zm-177.426 29.284H120.14l9.149-29.284h12.462l-9.149 29.284zm-31.32 0H31.114l-4.154-29.284h83.47l-9.148 29.284zm268.076 0l-9.149-29.284h83.47l-4.154 29.284h-70.167zm54.957-129.361a5.798 5.798 0 0 1 5.791-5.791h16.744a5.798 5.798 0 0 1 5.791 5.791 5.795 5.795 0 0 1-5.096 5.749l-23.229 2.805v-8.554zM136.744 89.419c31.324-7.178 165.829-7.178 197.151 0 7.728 1.772 14.852 5.409 20.825 10.425-42.882-7.43-195.963-7.429-238.802.002 5.973-5.017 13.098-8.655 20.826-10.427zm-37.162 34.513c5.565-2.818 11.589-4.863 17.951-6.086 38.524-7.432 197.046-7.433 235.587.001 6.354 1.221 12.373 3.265 17.936 6.08l27.819 60.89H71.768l27.814-60.885zM18 169.216a5.798 5.798 0 0 1 5.791-5.791h16.744a5.798 5.798 0 0 1 5.791 5.791v8.555l-23.228-2.805a5.798 5.798 0 0 1-5.098-5.75zm45.351 33.601h343.938l28.638 28.638c5.349 5.349 8.619 12.422 9.36 19.838H25.353c.741-7.416 4.011-14.489 9.36-19.838l28.638-28.638zm53.468 174.722c0 5.051-4.109 9.16-9.16 9.16H62.62c-5.051 0-9.16-4.109-9.16-9.16v-15.138a55.53 55.53 0 0 0 17.734 2.909h45.625v12.229zm300.358 0c0 5.051-4.109 9.16-9.16 9.16h-45.028c-5.051 0-9.16-4.109-9.16-9.16V365.31h45.619c6.16 0 12.127-1.022 17.73-2.907v15.136z"/></symbol><symbol id="car2" viewBox="0 0 512 512"><path d="M474.661 207.78c12.626-5.93 17.911-15.312 19.505-23.163 10.148-1.98 17.834-10.93 17.834-21.648 0-12.167-9.898-22.066-22.066-22.066h-6.708c-12.167 0-22.065 9.898-22.065 22.066 0 10.198 6.965 18.779 16.381 21.294-.114.267-.236.533-.372.804-1.943 3.837-5.637 6.841-10.998 8.976-2.762-4.141-5.008-7.201-6.436-9.071-.579-9.691-3.496-43.897-16.95-78.606-21.239-54.8-58.461-83.766-107.64-83.766H221.544a8.002 8.002 0 1 0 0 16.004h113.603c42.503 0 73.654 24.629 92.584 73.201 10.594 27.181 14.299 54.75 15.545 68.104H68.724c1.246-13.356 4.953-40.925 15.545-68.104 18.93-48.572 50.081-73.201 92.584-73.201h12.682a8.002 8.002 0 1 0 0-16.004h-12.682c-49.179 0-86.401 28.965-107.64 83.766-13.452 34.709-16.37 68.914-16.95 78.606-1.428 1.87-3.674 4.93-6.436 9.071-5.361-2.135-9.055-5.14-10.998-8.976a14.254 14.254 0 0 1-.372-.804c9.416-2.517 16.381-11.096 16.381-21.294 0-12.167-9.898-22.066-22.065-22.066h-6.708C9.898 140.905 0 150.803 0 162.97c0 10.719 7.686 19.667 17.834 21.648 1.594 7.851 6.879 17.232 19.506 23.163A266.539 266.539 0 0 0 27.06 227.6c-.026.051-.048.104-.073.156a259.785 259.785 0 0 0-1.992 4.36c-12.482 28.04-26.238 72.383-21.037 124.557v91.376c0 22.799 18.549 41.348 41.348 41.348s41.348-18.549 41.348-41.348v-34.26h101.822v12.135a8.002 8.002 0 0 0 8.002 8.002h119.045a8.002 8.002 0 0 0 8.002-8.002V413.79h101.822v34.26c0 22.799 18.549 41.348 41.348 41.348s41.348-18.549 41.348-41.348v-91.376c5.201-52.174-8.555-96.517-21.037-124.559a267.87 267.87 0 0 0-12.345-24.335zm2.506-44.81a6.068 6.068 0 0 1 6.06-6.061h6.708a6.069 6.069 0 0 1 6.061 6.061 6.067 6.067 0 0 1-6.061 6.06h-6.708a6.067 6.067 0 0 1-6.06-6.06zm-448.393 6.06h-6.709a6.067 6.067 0 0 1-6.06-6.06 6.068 6.068 0 0 1 6.06-6.061h6.709c3.342 0 6.06 2.72 6.06 6.061s-2.719 6.06-6.06 6.06zm35.296 26.888h383.859c3.709 5.021 11.54 16.363 19.662 32.672a126.016 126.016 0 0 1-14.103 8.333 38.129 38.129 0 0 0-21.08-6.335c-14.457 0-27.068 8.043-33.604 19.886-.713.012-1.425.029-2.135.029H115.332c-.71 0-1.422-.017-2.135-.029-6.536-11.843-19.147-19.886-33.604-19.886a38.12 38.12 0 0 0-21.079 6.335 126.148 126.148 0 0 1-14.141-8.359c8.106-16.236 15.976-27.617 19.697-32.646zm390.691 73.028c0 12.326-10.027 22.353-22.353 22.353s-22.353-10.027-22.353-22.353c0-12.325 10.027-22.353 22.353-22.353s22.353 10.027 22.353 22.353zm-352.815 0c0 12.326-10.027 22.353-22.353 22.353-12.326 0-22.353-10.027-22.353-22.353 0-12.325 10.027-22.353 22.353-22.353 12.325 0 22.353 10.027 22.353 22.353zm-82.792 53.265c.169.301.216.482.216.482l-.245.1c.009-.194.018-.388.029-.582zM70.65 448.049c0 13.975-11.368 25.343-25.343 25.343s-25.344-11.368-25.344-25.343v-54.893c.062.067.128.131.19.2 9.213 10.065 21.808 17.028 35.237 19.429 5.065.906 10.135 1.004 15.26 1.004v34.26zm236.871-30.128H204.48v-24.269h103.04v24.269zm159.173 55.471c-13.975 0-25.343-11.368-25.343-25.343v-34.26c7.645 0 15.142-.472 22.495-2.746a63.97 63.97 0 0 0 18.236-9.017 61.916 61.916 0 0 0 9.764-8.668c.063-.068.129-.132.191-.201v54.892h.001c-.001 13.975-11.369 25.343-25.344 25.343zm25.385-117.885c-2.451 24.102-22.515 42.277-46.669 42.277H323.525V385.65a8.002 8.002 0 0 0-8.002-8.002H196.477a8.002 8.002 0 0 0-8.002 8.002v12.135H66.59c-24.154 0-44.217-18.176-46.669-42.277a212.621 212.621 0 0 1-.942-13.589c4.834 2.696 11.238 5.518 19.729 8.207 4.829 6.603 12.63 10.904 21.419 10.904 4.557 0 8.848-1.156 12.598-3.188 26.718 4.293 60.212 6.476 99.665 6.476h167.221c39.453 0 72.947-2.182 99.663-6.476a26.358 26.358 0 0 0 12.599 3.188c8.79 0 16.59-4.301 21.419-10.904 8.489-2.689 14.891-5.51 19.726-8.206a215.07 215.07 0 0 1-.939 13.587zM49.606 334.504c0-5.801 4.72-10.52 10.521-10.52 5.801 0 10.521 4.72 10.521 10.52 0 5.802-4.72 10.521-10.521 10.521-5.801 0-10.521-4.719-10.521-10.521zm391.744 0c0-5.801 4.72-10.52 10.521-10.52s10.521 4.72 10.521 10.52c0 5.802-4.72 10.521-10.521 10.521s-10.521-4.719-10.521-10.521zm51.545-11.703l-.266-.109s.05-.195.237-.517c.011.208.019.418.029.626zm-14.694 8.526c-1.576-13.132-12.779-23.347-26.328-23.347-14.627 0-26.526 11.899-26.526 26.525 0 3.149.555 6.17 1.566 8.974-24.15 3.206-53.425 4.835-87.302 4.835H172.389c-33.877 0-63.152-1.629-87.302-4.835a26.41 26.41 0 0 0 1.566-8.974c0-14.626-11.9-26.525-26.526-26.525-13.55 0-24.752 10.215-26.328 23.347-10.844-4.557-14.111-8.431-14.644-9.144 1.718-31.865 10.134-59.134 18.449-78.902a142.268 142.268 0 0 0 9.309 5.607 38.122 38.122 0 0 0-5.678 20.058c0 21.15 17.207 38.357 38.357 38.357s38.357-17.207 38.357-38.357c0-.819-.035-1.631-.086-2.438h276.273a38.61 38.61 0 0 0-.086 2.438c0 21.15 17.207 38.357 38.357 38.357s38.357-17.207 38.357-38.357a38.125 38.125 0 0 0-5.678-20.057c3.155-1.739 6.244-3.6 9.258-5.574 8.922 21.181 16.874 48.087 18.521 78.84-.474.643-3.69 4.559-14.664 9.172z"/><path d="M367.029 300.184h-86.792c-3.366-10.168-12.956-17.528-24.238-17.528s-20.873 7.36-24.238 17.528H144.97a8.002 8.002 0 1 0 0 16.004h86.792c3.365 10.168 12.956 17.528 24.238 17.528s20.872-7.36 24.238-17.528h86.792a8.002 8.002 0 1 0-.001-16.004zm-111.028 17.528c-5.253 0-9.526-4.273-9.526-9.526s4.273-9.526 9.526-9.526 9.526 4.273 9.526 9.526c-.001 5.253-4.275 9.526-9.526 9.526zM423.351 154.332c-2.635-13.132-6.136-25.377-10.408-36.396-7.495-19.343-17.148-34.487-28.69-45.013-13.509-12.321-29.571-18.31-49.104-18.31h-19.711a8.002 8.002 0 1 0 0 16.004h19.711c15.36 0 27.895 4.622 38.32 14.13 9.697 8.845 17.958 21.957 24.552 38.973 2.893 7.461 5.408 15.565 7.513 24.185H184.496a8.002 8.002 0 1 0 0 16.004h231.008a8.003 8.003 0 0 0 7.847-9.577zM283.428 54.613H176.853c-19.315-.001-35.226 5.851-48.64 17.891-11.479 10.301-21.117 25.151-28.646 44.136-4.51 11.375-8.185 24.057-10.92 37.692a8 8 0 0 0 7.845 9.577h55.997a8.002 8.002 0 1 0 0-16.004h-46.025c2.216-9.068 4.889-17.569 7.981-25.365 6.607-16.663 14.836-29.491 24.457-38.123 10.346-9.285 22.76-13.799 37.952-13.799h106.575a8.004 8.004 0 0 0-.001-16.005z"/></symbol><symbol id="jeep" viewBox="0 0 512 512"><path d="M504.381 129.196h-80.15a7.595 7.595 0 0 0-5.803 2.689l-9.839-82.98a7.62 7.62 0 0 0-7.566-6.722H112.356a7.62 7.62 0 0 0-7.566 6.722l-10.059 84.826a7.615 7.615 0 0 0-6.963-4.536H7.619A7.618 7.618 0 0 0 0 136.814v46.599a7.619 7.619 0 0 0 6.309 7.506l69.449 12.113a64.515 64.515 0 0 0-8.889 32.734V260.2h-34.32a7.618 7.618 0 0 0-7.619 7.619v103.227c0 .089.01.177.013.266-.003.089-.013.177-.013.266v90.621a7.618 7.618 0 0 0 7.619 7.619h86.674a7.618 7.618 0 0 0 7.619-7.619v-83.534h259.695v83.534a7.618 7.618 0 0 0 7.619 7.619h86.674a7.618 7.618 0 0 0 7.619-7.619v-90.621c0-.089-.01-.177-.013-.266.003-.089.013-.177.013-.266V267.819a7.618 7.618 0 0 0-7.619-7.619h-34.319v-24.434a64.52 64.52 0 0 0-9.015-32.952l68.196-11.894a7.619 7.619 0 0 0 6.309-7.506v-46.599a7.619 7.619 0 0 0-7.62-7.619zM119.125 57.419h275.131l14.136 119.23a64.533 64.533 0 0 0-26.817-5.82h-5.843l-7.765-84.486a7.62 7.62 0 0 0-7.587-6.921H144.642a7.62 7.62 0 0 0-7.587 6.921l-7.77 84.55a64.434 64.434 0 0 0-24.297 5.757l14.137-119.231zM360.429 170.83H144.592l7-76.17h201.837l7 76.17zM82.106 267.817v-32.053c0-27.405 22.294-49.699 49.699-49.699h249.77c27.405 0 49.699 22.294 49.699 49.699v78.733H319.869V213.518a7.618 7.618 0 0 0-7.619-7.619 7.618 7.618 0 0 0-7.619 7.619v100.979h-22.326V213.518c0-4.209-3.41-7.619-7.619-7.619s-7.619 3.41-7.619 7.619v100.979h-22.325V213.518c0-4.209-3.41-7.619-7.619-7.619s-7.619 3.41-7.619 7.619v100.979H210.94V213.518c0-4.209-3.41-7.619-7.619-7.619s-7.619 3.41-7.619 7.619v100.979H82.106v-46.68zm-66.869-90.808v-32.576H80.15v43.898l-64.913-11.322zm24.93 98.427h26.702V363.426H40.167v-87.99zm71.437 179.144H40.167v-75.383h71.437v75.383zm-29.498-91.153v-33.691h349.167v33.691H82.106zm364.405-41.311v-46.68h26.702v87.99h-26.702v-41.31zm26.701 57.08v75.383h-71.437v-75.383h71.437zm23.551-202.187l-64.912 11.322v-43.898h64.912v32.576z"/><path d="M139.664 200.997c-20.611 0-37.38 16.769-37.38 37.381 0 20.612 16.769 37.381 37.38 37.381 20.612 0 37.381-16.769 37.381-37.381s-16.769-37.381-37.381-37.381zm0 59.525c-12.21 0-22.143-9.934-22.143-22.144s9.933-22.144 22.143-22.144 22.144 9.934 22.144 22.144-9.934 22.144-22.144 22.144zM371.813 200.997c-20.611 0-37.38 16.769-37.38 37.381 0 20.612 16.769 37.381 37.38 37.381 20.612 0 37.381-16.769 37.381-37.381s-16.769-37.381-37.381-37.381zm0 59.525c-12.21 0-22.143-9.934-22.143-22.144s9.933-22.144 22.143-22.144 22.144 9.934 22.144 22.144-9.934 22.144-22.144 22.144z"/></symbol><symbol id="return" viewBox="0 0 79.292 79.292"><path d="M8.958 51.52c-.896-2.912-1.345-6.049-1.345-9.184 0-13.664 9.185-25.312 21.952-29.121v3.809l16.802-8.512L29.566 0v6.048C13.214 10.304.894 24.864.894 42.336c0 2.463.225 4.928.672 7.168l.672-3.584 6.72 5.6zM63.837 47.711l-1.12 18.816 15.681-10.303-5.15-3.139c1.119-3.357 1.566-6.941 1.566-10.752 0-16.126-10.527-29.791-24.863-34.943l2.688 2.016-8.062 3.36c13.437 3.136 23.518 15.232 23.518 29.567 0 2.465-.448 4.928-.896 7.168l-3.362-1.79zM60.253 62.719c-5.602 6.049-13.439 9.857-22.399 9.857-8.063 0-15.456-3.361-20.832-8.512l3.36-1.793L4.703 51.967l1.119 18.816 5.152-3.137a36.864 36.864 0 0 0 26.88 11.646c9.185 0 17.474-3.358 23.968-8.959l-2.688.896 1.119-8.51z"/><path d="M35.39 21.28v4.928c-5.6 1.121-8.736 4.705-8.736 9.185 0 4.928 3.809 7.616 9.185 9.407 3.808 1.347 5.375 2.466 5.375 4.48s-2.017 3.137-4.927 3.137c-3.36 0-6.272-1.121-8.513-2.24l-1.567 6.05c2.016 1.119 5.376 2.016 8.735 2.237v4.931h5.152v-5.377c5.823-1.119 9.184-4.929 9.184-9.408 0-4.703-2.464-7.394-8.512-9.631-4.479-1.568-6.271-2.688-6.271-4.479 0-1.345 1.119-2.912 4.479-2.912 3.809 0 6.048 1.121 7.393 1.793l1.567-5.824c-1.792-.896-4.032-1.568-7.393-1.793v-4.479l-5.151-.005z"/></symbol><symbol id="tire" viewBox="0 0 295.239 295.239"><path d="M223.811 107.895V100c0-9.933-5.1-18.686-12.81-23.81 7.714-5.124 12.81-13.876 12.81-23.81V28.57c0-15.756-12.815-28.57-28.572-28.57H28.571C12.815 0 .001 12.814.001 28.571v23.81c0 9.933 5.1 18.686 12.81 23.81C5.1 81.314.001 90.067.001 100v23.81c0 9.933 5.1 18.686 12.81 23.81-7.71 5.123-12.81 13.875-12.81 23.809v23.81c0 15.757 12.814 28.571 28.571 28.571h79.324c10.614 41.01 47.824 71.429 92.105 71.429 52.514 0 95.238-42.724 95.238-95.238 0-44.282-30.419-81.491-71.428-92.106zm43.881 39.724c10.848 13.99 17.457 31.381 17.914 50.305l-10.553-10.557c-2.562-15.262-9.648-28.986-19.871-39.748h12.51zm-8.567-9.523h-14.876v-.001c-12.01-8.61-26.59-13.805-42.371-14.19l8.871-8.871c18.652 2.348 35.433 10.69 48.376 23.062zM213.61 95.238h-48.076l17.143-14.286h12.562c8.848 0 16.243 6.096 18.371 14.286zM110.657 71.429H68.391L51.248 57.143h42.266l17.143 14.286zm-2.266-14.286h42.267L167.8 71.429h-42.267l-17.142-14.286zm17.143 23.809H167.8l-17.143 14.286H108.39l17.144-14.286zm69.704-9.523h-12.562l-17.143-14.286h48.076c-2.129 8.19-9.523 14.286-18.371 14.286zM167.8 9.524L150.657 23.81H108.39l17.143-14.286H167.8zm-57.143 0L93.514 23.81H51.248L68.391 9.524h42.266zm-82.086 0h24.943L36.371 23.81h-26.17c2.128-8.191 9.524-14.286 18.37-14.286zM9.524 33.333H171.43V23.81h-5.895l17.143-14.286h12.562c8.847 0 16.242 6.095 18.371 14.286h-13.61v9.524h14.286V47.62H9.524V33.333zm.677 23.81h26.171l17.143 14.286H28.571c-8.846 0-16.242-6.096-18.37-14.286zm18.37 23.809h24.943L36.371 95.238h-26.17c2.128-8.19 9.524-14.286 18.37-14.286zm-19.047 23.81H39.82l28.571-23.81h42.267L93.514 95.238h-3.038v9.524h123.81v1.19c-4.672-.709-9.419-1.19-14.286-1.19-18.314 0-35.381 5.286-49.919 14.286H9.524v-14.286zm188.401 9.633l-10.557 10.553c-15.262 2.562-28.986 9.648-39.748 19.871v-12.51c13.99-10.848 31.381-17.457 50.305-17.914zm-89.534 14.177h28.829a95.621 95.621 0 0 0-12.634 13.495l-16.195-13.495zm2.266 14.285H68.391l-17.143-14.286h42.267l17.142 14.286zm27.439-1.981v14.876c-8.61 12.01-13.805 26.59-14.19 42.371l-8.871-8.871c2.346-18.652 10.69-35.428 23.061-48.376zM10.201 128.571h26.171l17.143 14.286H28.571c-8.846 0-16.242-6.095-18.37-14.286zm18.37 23.81h24.943l-17.143 14.286h-26.17c2.128-8.19 9.524-14.286 18.37-14.286zm0 61.905c-8.847 0-16.242-6.096-18.371-14.286h26.171l17.143 14.286H28.571zm79.325-38.096c-1.971 7.624-3.133 15.576-3.133 23.81 0 4.867.481 9.614 1.19 14.286H68.391L51.248 200h29.705v-9.524H9.524V176.19h71.429v-9.524H51.248l17.143-14.286h49.257a94.936 94.936 0 0 0-6.748 14.286H90.477v9.524h17.419zm24.414 76.191c-10.848-13.99-17.457-31.381-17.914-50.305l10.553 10.557c2.562 15.262 9.648 28.986 19.871 39.748h-12.51zm56.943 32.585c-18.652-2.348-35.429-10.69-48.376-23.062h14.876v.001c12.01 8.61 26.59 13.805 42.371 14.19l-8.871 8.871zM133.334 200c0-36.762 29.905-66.667 66.667-66.667s66.667 29.905 66.667 66.667-29.905 66.667-66.667 66.667-66.667-29.905-66.667-66.667zm119.047 67.691c-13.99 10.848-31.381 17.457-50.305 17.914l10.557-10.553c15.262-2.562 28.986-9.648 39.748-19.871v12.51zm9.525-8.567v-14.876c8.61-12.01 13.805-26.59 14.19-42.371l8.871 8.871c-2.347 18.652-10.691 35.428-23.061 48.376z"/><path d="M247.62 200c0-26.257-21.362-47.619-47.619-47.619s-47.62 21.362-47.62 47.619 21.362 47.619 47.619 47.619 47.62-21.362 47.62-47.619zm-85.714 0c0-21.005 17.09-38.095 38.095-38.095s38.095 17.09 38.095 38.095-17.09 38.095-38.095 38.095-38.095-17.09-38.095-38.095zM180.953 23.81h9.524v9.524h-9.524zM71.43 95.238h9.524v9.524H71.43zM52.576 95.238H62.1v9.524h-9.524zM200.001 252.381v9.524c15.257 0 29.914-5.6 41.271-15.767l-6.352-7.095a52.287 52.287 0 0 1-34.919 13.338zM90.477 190.476h9.524V200h-9.524zM104.472 250.095l-8.352 4.576c8.424 15.371 20.3 29.067 34.343 39.619l5.719-7.614c-12.968-9.747-23.934-22.395-31.71-36.581z"/></symbol><symbol id="truck" viewBox="0 0 512.853 512.853"><path d="M505.173 194.133l-74.24-81.92c-5.973-5.973-13.653-9.387-21.333-9.387h-85.333v-17.92c0-18.773-14.507-33.28-32.427-33.28H33.28C14.507 51.627 0 66.133 0 84.907V380.16c0 16.213 13.653 29.867 29.867 29.867H43.27c4.075 29.155 28.753 51.2 59.131 51.2s55.056-22.045 59.131-51.2H350.47c4.075 29.155 28.753 51.2 59.131 51.2s55.056-22.045 59.131-51.2h44.121V213.76c0-7.68-2.56-14.507-7.68-19.627zm-13.653 11.094c2.56 1.707 3.413 5.12 3.413 7.68v26.453h-128v-85.333h77.653l46.934 51.2zm-474.453 25.6h119.467c5.12 0 8.533-3.413 8.533-8.533s-3.413-8.533-8.533-8.533H17.067v-25.6H102.4c5.12 0 8.533-3.413 8.533-8.533 0-5.12-3.413-8.533-8.533-8.533H17.067V84.907c0-9.387 6.827-16.213 16.213-16.213h257.707c9.387 0 16.213 7.68 16.213 16.213V290.56H17.067v-59.733zM102.4 444.16c-23.893 0-42.667-18.773-42.667-42.667 0-23.893 18.773-42.667 42.667-42.667 23.893 0 42.667 18.773 42.667 42.667 0 23.894-18.774 42.667-42.667 42.667zm204.8-51.2H161.531c-3.821-27.339-25.761-48.416-53.528-50.936-.203-.019-.409-.029-.613-.046-.699-.056-1.397-.114-2.103-.147-.957-.046-1.919-.072-2.887-.072s-1.93.026-2.887.072c-.706.033-1.404.09-2.103.147-.204.017-.41.027-.613.046-27.767 2.52-49.707 23.597-53.528 50.936H29.867c-6.827 0-12.8-5.973-12.8-12.8v-72.533H307.2v85.333zm102.4 51.2c-23.893 0-42.667-18.773-42.667-42.667 0-23.893 18.773-42.667 42.667-42.667 23.893 0 42.667 18.773 42.667 42.667 0 23.894-18.774 42.667-42.667 42.667zm59.131-51.2c-3.821-27.339-25.761-48.416-53.528-50.936-.203-.019-.409-.029-.613-.046-.699-.056-1.397-.114-2.103-.147-.957-.046-1.919-.072-2.887-.072s-1.93.026-2.887.072c-.706.033-1.404.09-2.103.147-.204.017-.41.027-.613.046-27.767 2.52-49.707 23.597-53.528 50.936h-26.203V119.893H409.6c2.56 0 5.973 1.707 8.533 3.413l12.231 13.653h-65.991c-7.68 0-14.507 6.827-14.507 14.507v90.453c0 7.68 6.827 14.507 14.507 14.507h130.56v42.667h-42.667c-5.12 0-8.533 3.413-8.533 8.533s3.413 8.533 8.533 8.533h42.667v76.8h-26.202z"/><path d="M102.4 384.427c-9.387 0-17.067 7.68-17.067 17.067s7.68 17.067 17.067 17.067 17.067-7.68 17.067-17.067-7.68-17.067-17.067-17.067zM409.6 384.427c-9.387 0-17.067 7.68-17.067 17.067s7.68 17.067 17.067 17.067 17.067-7.68 17.067-17.067-7.68-17.067-17.067-17.067z"/></symbol></svg>