<?xml version="1.0" encoding="iso-8859-1"?>
<!-- Generator: Adobe Illustrator 19.0.0, SVG Export Plug-In . SVG Version: 6.00 Build 0)  -->
<svg version="1.1" id="Layer_1" xmlns="http://www.w3.org/2000/svg" xmlns:xlink="http://www.w3.org/1999/xlink" x="0px" y="0px"
	 viewBox="0 0 512 512" style="enable-background:new 0 0 512 512;" xml:space="preserve">
<g>
	<g>
		<path d="M474.661,207.78c12.626-5.93,17.911-15.312,19.505-23.163c10.148-1.98,17.834-10.93,17.834-21.648
			c0-12.167-9.898-22.066-22.066-22.066h-6.708c-12.167,0-22.065,9.898-22.065,22.066c0,10.198,6.965,18.779,16.381,21.294
			c-0.114,0.267-0.236,0.533-0.372,0.804c-1.943,3.837-5.637,6.841-10.998,8.976c-2.762-4.141-5.008-7.201-6.436-9.071
			c-0.579-9.691-3.496-43.897-16.95-78.606c-21.239-54.8-58.461-83.766-107.64-83.766H221.544c-4.419,0-8.002,3.582-8.002,8.002
			s3.583,8.002,8.002,8.002h113.603c42.503,0,73.654,24.629,92.584,73.201c10.594,27.181,14.299,54.75,15.545,68.104H68.724
			c1.246-13.356,4.953-40.925,15.545-68.104c18.93-48.572,50.081-73.201,92.584-73.201h12.682c4.419,0,8.002-3.582,8.002-8.002
			s-3.583-8.002-8.002-8.002h-12.682c-49.179,0-86.401,28.965-107.64,83.766c-13.452,34.709-16.37,68.914-16.95,78.606
			c-1.428,1.87-3.674,4.93-6.436,9.071c-5.361-2.135-9.055-5.14-10.998-8.976c-0.137-0.271-0.258-0.539-0.372-0.804
			c9.416-2.517,16.381-11.096,16.381-21.294c0-12.167-9.898-22.066-22.065-22.066h-6.708C9.898,140.905,0,150.803,0,162.97
			c0,10.719,7.686,19.667,17.834,21.648c1.594,7.851,6.879,17.232,19.506,23.163c-3.285,5.724-6.795,12.359-10.28,19.819
			c-0.026,0.051-0.048,0.104-0.073,0.156c-0.666,1.427-1.331,2.873-1.992,4.36C12.513,260.156-1.243,304.499,3.958,356.673v91.376
			c0,22.799,18.549,41.348,41.348,41.348c22.799,0,41.348-18.549,41.348-41.348v-34.26h101.822v12.135
			c0,4.42,3.583,8.002,8.002,8.002h119.045c4.419,0,8.002-3.582,8.002-8.002V413.79h101.822v34.26
			c0,22.799,18.549,41.348,41.348,41.348c22.799,0,41.348-18.549,41.348-41.348v-91.376c5.201-52.174-8.555-96.517-21.037-124.559
			C482.855,222.79,478.596,214.638,474.661,207.78z M477.167,162.97c0-3.342,2.719-6.061,6.06-6.061h6.708
			c3.342,0,6.061,2.72,6.061,6.061c0,3.342-2.719,6.06-6.061,6.06h-6.708C479.886,169.03,477.167,166.312,477.167,162.97z
			 M28.774,169.03h-6.709c-3.342,0-6.06-2.719-6.06-6.06c0-3.342,2.719-6.061,6.06-6.061h6.709c3.342,0,6.06,2.72,6.06,6.061
			S32.115,169.03,28.774,169.03z M64.07,195.918h383.859c3.709,5.021,11.54,16.363,19.662,32.672
			c-4.512,3.081-9.23,5.864-14.103,8.333c-6.054-3.998-13.297-6.335-21.08-6.335c-14.457,0-27.068,8.043-33.604,19.886
			c-0.713,0.012-1.425,0.029-2.135,0.029H115.332c-0.71,0-1.422-0.017-2.135-0.029c-6.536-11.843-19.147-19.886-33.604-19.886
			c-7.781,0-15.026,2.336-21.079,6.335c-4.887-2.476-9.618-5.269-14.141-8.359C52.479,212.328,60.349,200.947,64.07,195.918z
			 M454.761,268.946c0,12.326-10.027,22.353-22.353,22.353s-22.353-10.027-22.353-22.353c0-12.325,10.027-22.353,22.353-22.353
			S454.761,256.62,454.761,268.946z M101.946,268.946c0,12.326-10.027,22.353-22.353,22.353c-12.326,0-22.353-10.027-22.353-22.353
			c0-12.325,10.027-22.353,22.353-22.353C91.918,246.593,101.946,256.62,101.946,268.946z M19.154,322.211
			c0.169,0.301,0.216,0.482,0.216,0.482l-0.245,0.1C19.134,322.599,19.143,322.405,19.154,322.211z M70.65,448.049
			c0,13.975-11.368,25.343-25.343,25.343c-13.975,0-25.344-11.368-25.344-25.343v-54.893c0.062,0.067,0.128,0.131,0.19,0.2
			c9.213,10.065,21.808,17.028,35.237,19.429c5.065,0.906,10.135,1.004,15.26,1.004V448.049z M307.521,417.921H204.48v-24.269
			h103.04V417.921z M466.694,473.392c-13.975,0-25.343-11.368-25.343-25.343v-34.26c7.645,0,15.142-0.472,22.495-2.746
			c6.536-2.023,12.661-5.048,18.236-9.017c3.545-2.524,6.828-5.454,9.764-8.668c0.063-0.068,0.129-0.132,0.191-0.201v54.892h0.001
			C492.037,462.024,480.669,473.392,466.694,473.392z M492.079,355.507c-2.451,24.102-22.515,42.277-46.669,42.277h-12.061H323.525
			V385.65c0-4.42-3.583-8.002-8.002-8.002H196.477c-4.419,0-8.002,3.582-8.002,8.002v12.135H78.652H66.59
			c-24.154,0-44.217-18.176-46.669-42.277c-0.467-4.596-0.776-9.128-0.942-13.589c4.834,2.696,11.238,5.518,19.729,8.207
			c4.829,6.603,12.63,10.904,21.419,10.904c4.557,0,8.848-1.156,12.598-3.188c26.718,4.293,60.212,6.476,99.665,6.476h167.221
			c39.453,0,72.947-2.182,99.663-6.476c3.75,2.033,8.042,3.188,12.599,3.188c8.79,0,16.59-4.301,21.419-10.904
			c8.489-2.689,14.891-5.51,19.726-8.206C492.848,346.386,492.546,350.914,492.079,355.507z M49.606,334.504
			c0-5.801,4.72-10.52,10.521-10.52c5.801,0,10.521,4.72,10.521,10.52c0,5.802-4.72,10.521-10.521,10.521
			C54.326,345.025,49.606,340.306,49.606,334.504z M441.35,334.504c0-5.801,4.72-10.52,10.521-10.52s10.521,4.72,10.521,10.52
			c0,5.802-4.72,10.521-10.521,10.521S441.35,340.306,441.35,334.504z M492.895,322.801l-0.266-0.109c0,0,0.05-0.195,0.237-0.517
			C492.877,322.383,492.885,322.593,492.895,322.801z M478.201,331.327c-1.576-13.132-12.779-23.347-26.328-23.347
			c-14.627,0-26.526,11.899-26.526,26.525c0,3.149,0.555,6.17,1.566,8.974c-24.15,3.206-53.425,4.835-87.302,4.835H172.389
			c-33.877,0-63.152-1.629-87.302-4.835c1.011-2.804,1.566-5.826,1.566-8.974c0-14.626-11.9-26.525-26.526-26.525
			c-13.55,0-24.752,10.215-26.328,23.347c-10.844-4.557-14.111-8.431-14.644-9.144c1.718-31.865,10.134-59.134,18.449-78.902
			c3.03,1.987,6.136,3.857,9.309,5.607c-3.598,5.841-5.678,12.71-5.678,20.058c0,21.15,17.207,38.357,38.357,38.357
			c21.15,0,38.357-17.207,38.357-38.357c0-0.819-0.035-1.631-0.086-2.438h276.273c-0.051,0.807-0.086,1.619-0.086,2.438
			c0,21.15,17.207,38.357,38.357,38.357c21.15,0,38.357-17.207,38.357-38.357c0-7.348-2.081-14.217-5.678-20.057
			c3.155-1.739,6.244-3.6,9.258-5.574c8.922,21.181,16.874,48.087,18.521,78.84C492.391,322.798,489.175,326.714,478.201,331.327z"
			/>
	</g>
</g>
<g>
	<g>
		<path d="M367.029,300.184h-86.792c-3.366-10.168-12.956-17.528-24.238-17.528c-11.282,0-20.873,7.36-24.238,17.528H144.97
			c-4.419,0-8.002,3.582-8.002,8.002s3.583,8.002,8.002,8.002h86.792c3.365,10.168,12.956,17.528,24.238,17.528
			c11.282,0,20.872-7.36,24.238-17.528h86.792c4.419,0,8.002-3.582,8.002-8.002S371.449,300.184,367.029,300.184z M256.001,317.712
			c-5.253,0-9.526-4.273-9.526-9.526c0-5.253,4.273-9.526,9.526-9.526c5.253,0,9.526,4.273,9.526,9.526
			C265.526,313.439,261.252,317.712,256.001,317.712z"/>
	</g>
</g>
<g>
	<g>
		<path d="M423.351,154.332c-2.635-13.132-6.136-25.377-10.408-36.396c-7.495-19.343-17.148-34.487-28.69-45.013
			c-13.509-12.321-29.571-18.31-49.104-18.31h-19.711c-4.419,0-8.002,3.582-8.002,8.002s3.583,8.002,8.002,8.002h19.711
			c15.36,0,27.895,4.622,38.32,14.13c9.697,8.845,17.958,21.957,24.552,38.973c2.893,7.461,5.408,15.565,7.513,24.185H184.496
			c-4.419,0-8.002,3.582-8.002,8.002s3.583,8.002,8.002,8.002h231.008c2.398,0,4.67-1.076,6.19-2.931
			C423.214,159.124,423.822,156.685,423.351,154.332z"/>
	</g>
</g>
<g>
	<g>
		<path d="M283.428,54.613H176.853c-19.315-0.001-35.226,5.851-48.64,17.891c-11.479,10.301-21.117,25.151-28.646,44.136
			c-4.51,11.375-8.185,24.057-10.92,37.692c-0.472,2.352,0.135,4.791,1.655,6.646c1.519,1.855,3.792,2.931,6.19,2.931h55.997
			c4.419,0,8.002-3.582,8.002-8.002s-3.583-8.002-8.002-8.002h-46.025c2.216-9.068,4.889-17.569,7.981-25.365
			c6.607-16.663,14.836-29.491,24.457-38.123c10.346-9.285,22.76-13.799,37.952-13.799h106.575c4.419,0,8.002-3.582,8.002-8.002
			C291.43,58.195,287.847,54.613,283.428,54.613z"/>
	</g>
</g>
<g>
</g>
<g>
</g>
<g>
</g>
<g>
</g>
<g>
</g>
<g>
</g>
<g>
</g>
<g>
</g>
<g>
</g>
<g>
</g>
<g>
</g>
<g>
</g>
<g>
</g>
<g>
</g>
<g>
</g>
</svg>
