<?xml version="1.0" encoding="iso-8859-1"?>
<!-- Generator: Adobe Illustrator 19.0.0, SVG Export Plug-In . SVG Version: 6.00 Build 0)  -->
<svg version="1.1" id="Layer_1" xmlns="http://www.w3.org/2000/svg" xmlns:xlink="http://www.w3.org/1999/xlink" x="0px" y="0px"
	 viewBox="0 0 512 512" style="enable-background:new 0 0 512 512;" xml:space="preserve">
<g>
	<g>
		<path d="M504.381,129.196h-80.15c-2.326,0-4.406,1.045-5.803,2.689l-9.839-82.98c-0.455-3.834-3.705-6.722-7.566-6.722H112.356
			c-3.861,0-7.111,2.888-7.566,6.722l-10.059,84.826c-1.184-2.671-3.854-4.536-6.963-4.536H7.619c-4.208,0-7.619,3.41-7.619,7.619
			v46.599c0,3.703,2.661,6.869,6.309,7.506l69.449,12.113c-5.64,9.619-8.889,20.801-8.889,32.734V260.2h-34.32
			c-4.209,0-7.619,3.41-7.619,7.619v103.227c0,0.089,0.01,0.177,0.013,0.266c-0.003,0.089-0.013,0.177-0.013,0.266v90.621
			c0,4.208,3.41,7.619,7.619,7.619h86.674c4.208,0,7.619-3.41,7.619-7.619v-83.534h259.695v83.534c0,4.208,3.41,7.619,7.619,7.619
			h86.674c4.208,0,7.619-3.41,7.619-7.619v-90.621c0-0.089-0.01-0.177-0.013-0.266c0.003-0.089,0.013-0.177,0.013-0.266V267.819
			c0-4.209-3.41-7.619-7.619-7.619h-34.319v-24.434c0-12.022-3.296-23.284-9.015-32.952l68.196-11.894
			c3.648-0.637,6.309-3.803,6.309-7.506v-46.599C512,132.606,508.59,129.196,504.381,129.196z M119.125,57.419h275.131
			l14.136,119.23c-8.181-3.726-17.257-5.82-26.817-5.82h-5.843l-7.765-84.486c-0.36-3.92-3.65-6.921-7.587-6.921H144.642
			c-3.937,0-7.226,3.001-7.587,6.921l-7.77,84.55c-8.635,0.331-16.839,2.359-24.297,5.757L119.125,57.419z M360.429,170.83H144.592
			l7-76.17h201.837L360.429,170.83z M82.106,267.817v-32.053c0-27.405,22.294-49.699,49.699-49.699h249.77
			c27.405,0,49.699,22.294,49.699,49.699v32.053v46.68H319.869V213.518c0-4.209-3.41-7.619-7.619-7.619
			c-4.208,0-7.619,3.41-7.619,7.619v100.979h-22.326V213.518c0-4.209-3.41-7.619-7.619-7.619s-7.619,3.41-7.619,7.619v100.979
			h-22.325V213.518c0-4.209-3.41-7.619-7.619-7.619s-7.619,3.41-7.619,7.619v100.979H210.94V213.518c0-4.209-3.41-7.619-7.619-7.619
			s-7.619,3.41-7.619,7.619v100.979H82.106V267.817z M15.237,177.009v-32.576H80.15v43.898L15.237,177.009z M40.167,275.436h26.702
			v46.68v41.31H40.167V275.436z M111.604,454.58H40.167v-75.383h71.437V454.58z M82.106,363.427v-33.691h349.167v33.691H82.106z
			 M446.511,322.116v-46.68h26.702v87.99h-26.702V322.116z M473.212,379.196v75.383h-71.437v-75.383H473.212z M496.763,177.009
			l-64.912,11.322v-43.898h64.912V177.009z"/>
	</g>
</g>
<g>
	<g>
		<path d="M139.664,200.997c-20.611,0-37.38,16.769-37.38,37.381c0,20.612,16.769,37.381,37.38,37.381
			c20.612,0,37.381-16.769,37.381-37.381S160.276,200.997,139.664,200.997z M139.664,260.522c-12.21,0-22.143-9.934-22.143-22.144
			s9.933-22.144,22.143-22.144c12.21,0,22.144,9.934,22.144,22.144S151.874,260.522,139.664,260.522z"/>
	</g>
</g>
<g>
	<g>
		<path d="M371.813,200.997c-20.611,0-37.38,16.769-37.38,37.381c0,20.612,16.769,37.381,37.38,37.381
			c20.612,0,37.381-16.769,37.381-37.381S392.425,200.997,371.813,200.997z M371.813,260.522c-12.21,0-22.143-9.934-22.143-22.144
			s9.933-22.144,22.143-22.144c12.21,0,22.144,9.934,22.144,22.144S384.023,260.522,371.813,260.522z"/>
	</g>
</g>
<g>
</g>
<g>
</g>
<g>
</g>
<g>
</g>
<g>
</g>
<g>
</g>
<g>
</g>
<g>
</g>
<g>
</g>
<g>
</g>
<g>
</g>
<g>
</g>
<g>
</g>
<g>
</g>
<g>
</g>
</svg>
